<svg xmlns="http://www.w3.org/2000/svg" enable-background="new 0 0 512 512" viewBox="0 0 512 512" id="queue">
  <path d="M2884.119-594.823v-9.741c0-18.85-15.743-34.172-35.172-34.172h-6.582c-19.429 0-35.225 15.322-35.225 34.172.008 2.966-.027 11.46.039 12.774-1.621 18.682 16.555 42.808 38.451 42.808C2864.157-548.982 2884.119-566.145 2884.119-594.823zM2845.63-559.513c-14.706 0-28.552-17.35-28.006-30.652 2.088-2.523 7.544-8.571 14.315-11.502 2.58-1.106 5.687-.316 7.635 1.843 7.876 8.789 23.718 10.326 33.945 10.365C2872.607-574.769 2860.147-559.513 2845.63-559.513zM2563.776-783.584c0-18.85-15.743-34.172-35.172-34.172h-6.582c-19.429 0-35.225 15.322-35.225 34.172v12.531c0 24.701 19.985 43.05 38.491 43.05 22.285 0 40.084-23.617 38.339-45.069C2563.896-774.845 2563.715-777.783 2563.776-783.584zM2525.289-738.534c-14.689 0-28.548-17.33-28.006-30.647 2.09-2.526 7.554-8.604 14.315-11.508 2.58-1.053 5.686-.316 7.635 1.843 7.876 8.79 23.719 10.326 33.945 10.365C2552.276-753.958 2539.941-738.534 2525.289-738.534zM2688.775-728.246h-6.582c-19.429 0-35.172 15.322-35.172 34.172v12.531c4.995 31.111 21.598 43.05 38.454 43.05 18.653 0 38.525-17.294 38.525-45.841v-9.741C2724-712.924 2708.204-728.246 2688.775-728.246zM2685.475-649.023c-14.711 0-28.534-17.346-28.007-30.632 2.055-2.516 7.535-8.613 14.353-11.523 2.527-1.106 5.687-.316 7.635 1.843 7.837 8.794 23.683 10.327 33.908 10.365C2712.452-664.278 2699.993-649.023 2685.475-649.023zM2911.182-486.62c0 .94-2.659 57.151-2.685 57.708-.369 7.477-5.845 13.532-12.953 14.901v-72.345c0-2.896-2.369-5.265-5.265-5.265s-5.265 2.37-5.265 5.265v70.819l-7.793 85.614c-.632 9.53-8.74 17.06-18.376 17.06-2.844 0-5.581-.632-7.951-1.79v-95.671c0-2.896-2.37-5.265-5.265-5.265-2.896 0-5.265 2.37-5.265 5.265v95.671c-2.369 1.158-5.055 1.79-7.898 1.79-9.688 0-17.744-7.53-18.429-17.165l-7.793-85.561v-70.714c0-2.948-2.369-5.265-5.265-5.265s-5.265 2.317-5.265 5.265v72.293c-7.003-1.474-12.268-7.213-12.847-14.374 0-.029-1.613-33.373-2.79-57.971 0-31.328 25.273-56.602 56.339-56.602h18.376C2885.856-542.959 2911.182-517.686 2911.182-486.62zM2751.011-576.116c0 .94-2.659 57.151-2.686 57.708-.368 7.477-5.845 13.532-12.953 14.901v-72.345c0-2.896-2.37-5.265-5.265-5.265s-5.265 2.37-5.265 5.265v70.819l-7.792 85.614c-.632 9.53-8.741 17.06-18.376 17.06-2.844 0-5.581-.632-7.951-1.79v-95.671c0-2.896-2.369-5.265-5.265-5.265s-5.265 2.37-5.265 5.265v95.671c-2.37 1.158-5.055 1.79-7.898 1.79-9.688 0-17.744-7.53-18.429-17.165l-7.793-85.561V-575.8c0-2.948-2.369-5.265-5.265-5.265s-5.265 2.317-5.265 5.265v72.293c-7.003-1.474-12.268-7.213-12.847-14.374 0-.029-1.613-33.373-2.791-57.971 0-31.328 25.273-56.602 56.339-56.602h18.376C2725.685-632.455 2751.011-607.181 2751.011-576.116zM2590.825-665.626c0 .94-2.659 57.151-2.685 57.708-.369 7.477-5.845 13.532-12.953 14.901v-72.345c0-2.896-2.369-5.265-5.265-5.265s-5.265 2.37-5.265 5.265v70.819l-7.793 85.614c-.632 9.53-8.74 17.06-18.376 17.06-2.844 0-5.581-.632-7.951-1.79v-95.671c0-2.896-2.37-5.265-5.265-5.265-2.896 0-5.265 2.37-5.265 5.265v95.671c-2.369 1.158-5.055 1.79-7.898 1.79-9.688 0-17.744-7.53-18.429-17.165l-7.793-85.561v-70.714c0-2.948-2.369-5.265-5.265-5.265s-5.265 2.317-5.265 5.265v72.293c-7.003-1.474-12.268-7.213-12.847-14.374 0-.211 0-.368-.052-.526v-.263c0 0 0 0 0-.053l-2.738-57.129c0-31.328 25.273-56.602 56.339-56.602h18.376C2565.499-721.966 2590.825-696.692 2590.825-665.626z" fill="#34a853" class="color000000 svgShape"></path>
  <g fill="#34a853" class="color000000 svgShape">
    <path d="M457.186 226.118v-9.878c0-19.116-15.965-34.653-35.667-34.653h-6.674c-19.703 0-35.721 15.537-35.721 34.653.008 3.007-.027 11.621.04 12.954-1.644 18.945 16.788 43.41 38.993 43.41C436.944 272.605 457.186 255.2 457.186 226.118zM418.156 261.926c-14.913 0-28.954-17.594-28.4-31.084 2.117-2.559 7.65-8.692 14.517-11.664 2.616-1.121 5.767-.321 7.742 1.869 7.987 8.913 24.052 10.471 34.423 10.511C445.513 246.454 432.878 261.926 418.156 261.926zM132.334 34.699c0-19.116-15.965-34.653-35.667-34.653h-6.674c-19.703 0-35.721 15.537-35.721 34.653v12.708c0 25.048 20.266 43.656 39.033 43.656 22.599 0 40.649-23.949 38.879-45.703C132.455 43.561 132.272 40.583 132.334 34.699zM93.305 80.384c-14.896 0-28.95-17.574-28.401-31.079 2.119-2.562 7.66-8.725 14.516-11.67 2.616-1.068 5.766-.321 7.742 1.869 7.987 8.914 24.053 10.471 34.423 10.511C120.672 64.743 108.163 80.384 93.305 80.384zM259.093 90.817h-6.674c-19.703 0-35.667 15.537-35.667 34.653v12.708c5.066 31.549 21.902 43.656 38.995 43.656 18.915 0 39.068-17.538 39.068-46.486v-9.878C294.814 106.354 278.795 90.817 259.093 90.817zM255.746 171.155c-14.918 0-28.936-17.59-28.401-31.063 2.084-2.551 7.641-8.735 14.555-11.685 2.563-1.121 5.767-.321 7.742 1.869 7.947 8.918 24.017 10.472 34.385 10.511C283.103 155.685 270.469 171.155 255.746 171.155zM484.631 335.844c0 .954-2.697 57.956-2.723 58.52-.374 7.582-5.927 13.722-13.135 15.11v-73.364c0-2.936-2.403-5.339-5.339-5.339s-5.339 2.403-5.339 5.339v71.816l-7.902 86.82c-.641 9.664-8.864 17.3-18.635 17.3-2.884 0-5.66-.641-8.063-1.815v-97.018c0-2.936-2.403-5.339-5.339-5.339-2.937 0-5.339 2.403-5.339 5.339v97.018c-2.403 1.175-5.126 1.815-8.009 1.815-9.825 0-17.994-7.636-18.688-17.407l-7.903-86.766v-71.709c0-2.99-2.402-5.339-5.339-5.339-2.937 0-5.339 2.35-5.339 5.339v73.311c-7.101-1.495-12.441-7.314-13.028-14.577 0-.029-1.635-33.842-2.83-58.787 0-31.769 25.629-57.399 57.132-57.399h18.635C458.948 278.712 484.631 304.341 484.631 335.844zM322.205 245.089c0 .954-2.697 57.956-2.723 58.52-.374 7.582-5.927 13.722-13.135 15.11v-73.364c0-2.936-2.403-5.339-5.339-5.339-2.937 0-5.339 2.403-5.339 5.339v71.816l-7.902 86.82c-.641 9.664-8.864 17.3-18.635 17.3-2.883 0-5.66-.641-8.063-1.815v-97.018c0-2.936-2.403-5.339-5.339-5.339s-5.339 2.403-5.339 5.339v97.018c-2.403 1.174-5.126 1.815-8.009 1.815-9.825 0-17.994-7.636-18.688-17.407l-7.903-86.766v-71.709c0-2.99-2.402-5.339-5.339-5.339-2.937 0-5.339 2.35-5.339 5.339v73.311c-7.101-1.495-12.441-7.314-13.028-14.577 0-.029-1.635-33.843-2.83-58.787 0-31.769 25.629-57.399 57.132-57.399h18.635C296.522 187.956 322.205 213.586 322.205 245.089zM159.764 154.318c0 .954-2.697 57.956-2.723 58.52-.374 7.582-5.927 13.722-13.135 15.11v-73.364c0-2.936-2.403-5.339-5.339-5.339s-5.339 2.403-5.339 5.339v71.816l-7.902 86.82c-.641 9.664-8.864 17.3-18.635 17.3-2.884 0-5.66-.641-8.063-1.815v-97.018c0-2.936-2.403-5.339-5.339-5.339-2.937 0-5.339 2.403-5.339 5.339v97.018c-2.403 1.174-5.126 1.815-8.009 1.815-9.825 0-17.994-7.636-18.688-17.407l-7.903-86.766v-71.709c0-2.99-2.402-5.339-5.339-5.339-2.937 0-5.339 2.35-5.339 5.339v73.311c-7.101-1.495-12.441-7.314-13.028-14.577 0-.214 0-.373-.053-.534v-.267c0 0 0 0 0-.053l-2.777-57.934c0-31.769 25.629-57.399 57.132-57.399h18.635C134.081 97.185 159.764 122.815 159.764 154.318z" fill="#34a853" class="color000000 svgShape"></path>
  </g>
</svg>
